<?xml version="1.0" encoding="UTF-8" standalone="no"?>
<svg width="103px" height="29px" viewBox="0 0 103 29" version="1.1" xmlns="http://www.w3.org/2000/svg" xmlns:xlink="http://www.w3.org/1999/xlink" xmlns:sketch="http://www.bohemiancoding.com/sketch/ns">
    <!-- Generator: Sketch 3.4 (15575) - http://www.bohemiancoding.com/sketch -->
    <title>FedEx Logo</title>
    <desc>Created with Sketch.</desc>
    <defs></defs>
    <g id="Style" stroke="none" stroke-width="1" fill="none" fill-rule="evenodd" sketch:type="MSPage">
        <g sketch:type="MSArtboardGroup" transform="translate(-121.000000, -36.000000)" id="Nav---Toolkit-Copy" fill="#FFFFFF">
            <g sketch:type="MSLayerGroup">
                <g id="FedEx-Logo" transform="translate(121.000000, 36.000000)" sketch:type="MSShapeGroup">
                    <path d="M93.6669312,11.1109928 L86.3982921,19.0750652 L93.7708859,27.1084855 L87.5335991,27.1084855 L83.1813014,22.3533261 L78.8706288,27.1084855 L72.9238546,27.1084855 L80.2298052,19.1103696 L72.9238546,11.1109928 L79.136986,11.1109928 L83.5302617,15.8281159 L87.7598409,11.1109928 L93.6669312,11.1109928 M95.5883692,10.270413 L87.3679616,10.270413 L83.5181839,14.5640942 L79.51916,10.270413 L71.0013382,10.270413 L79.0748719,19.1101594 L71.0013382,27.9490652 L79.2594887,27.9490652 L83.1843209,23.6196594 L87.1471116,27.9490652 L95.6996569,27.9490652 L87.5540881,19.0735942 L95.5883692,10.270413" id="Fill-1"></path>
                    <path d="M70.1386429,0.940608696 L70.1386429,5.46692029 L60.994073,5.46692029 L60.994073,11.1109928 L70.1386429,11.1109928 L70.1386429,15.4021522 L60.994073,15.4021522 L60.994073,22.5659928 L70.1386429,22.5659928 L70.1386429,27.1084855 L55.9997144,27.1084855 L55.9997144,0.940608696 L70.1386429,0.940608696 M71.0013382,0.100028986 L55.1370191,0.100028986 L55.1370191,27.9490652 L71.0013382,27.9490652 L71.0013382,21.725413 L61.8567683,21.725413 L61.8567683,16.2427319 L71.0013382,16.2427319 L71.0013382,10.270413 L61.8567683,10.270413 L61.8567683,6.3075 L71.0013382,6.3075 L71.0013382,0.100028986" id="Fill-2"></path>
                    <path d="M49.433302,0 L49.433302,11.3974203 L49.3599729,11.3974203 C47.8780781,9.73748551 46.026087,9.16063768 43.8790541,9.16063768 C39.4797396,9.16063768 36.1656957,12.0757681 35.0023511,15.9281449 C33.6748787,11.6832174 30.2534293,9.08099275 25.1797027,9.08099275 C21.0596857,9.08099275 17.8068932,10.8831957 16.1086775,13.819971 L16.1086775,10.1703841 L7.59150275,10.1703841 L7.59150275,6.20747101 L16.885966,6.20747101 L16.885966,0 L0,0 L0,27.8490362 L7.59150275,27.8490362 L7.59150275,16.1427029 L15.15885,16.1427029 C14.9332552,17.0038768 14.8129092,17.923471 14.8129092,18.8945507 C14.8129092,24.7046377 19.3666462,28.7808188 25.1797027,28.7808188 C30.0681655,28.7808188 33.2890383,26.5444565 34.9932928,22.4678551 L28.4870607,22.4678551 C27.6068958,23.6936304 26.9402481,24.0565507 25.1797027,24.0565507 C23.1402911,24.0565507 21.3814711,22.3220145 21.3814711,20.2661667 L34.6285884,20.2661667 C35.2037904,24.8798986 38.8909501,28.8598333 43.953893,28.8598333 C46.1373747,28.8598333 48.1368867,27.8126812 49.3599729,26.0457826 L49.433302,26.0457826 L49.433302,27.8490362 L56.1258763,27.8490362 L56.1258763,0 L49.433302,0 L49.433302,0 Z M21.5924001,16.2265507 C22.0146894,14.4575507 23.4226081,13.3013333 25.1797027,13.3013333 C27.1155909,13.3013333 28.4514745,14.4216159 28.8034542,16.2265507 L21.5924001,16.2265507 L21.5924001,16.2265507 Z M45.371517,23.608942 C42.9050712,23.608942 41.371846,21.3694275 41.371846,19.0311449 C41.371846,16.5312609 42.7053572,14.1280435 45.371517,14.1280435 C48.1368867,14.1280435 49.2379015,16.5312609 49.2379015,19.0311449 C49.2379015,21.4009493 48.0702435,23.608942 45.371517,23.608942 L45.371517,23.608942 Z" id="Fill-3"></path>
                    <path d="M100.619824,24.042471 C99.3840128,24.042471 98.2933502,24.9465145 98.2933502,26.284087 C98.2933502,27.6218696 99.3840128,28.525913 100.619824,28.525913 C101.856282,28.525913 102.945435,27.6218696 102.945435,26.284087 C102.945435,24.9465145 101.856282,24.042471 100.619824,24.042471 L100.619824,24.042471 Z M100.619824,28.1629928 C99.5306709,28.1629928 98.7397951,27.3680145 98.7397951,26.284087 C98.7397951,25.1993188 99.5306709,24.4035 100.619824,24.4035 C101.709624,24.4035 102.499637,25.1993188 102.499637,26.284087 C102.499637,27.3680145 101.709624,28.1629928 100.619824,28.1629928 L100.619824,28.1629928 Z" id="Fill-4"></path>
                    <path d="M101.115442,26.2355435 L101.115442,26.2229348 C101.385681,26.1880507 101.597689,25.9463841 101.597689,25.6446159 C101.597689,25.1505652 101.323783,24.8975507 100.731111,24.8975507 L99.7170131,24.8975507 L99.7170131,27.6098913 L100.125715,27.6098913 L100.125715,26.379913 L100.521476,26.379913 C100.793873,26.379913 100.917238,26.4646014 100.990567,26.6938696 C101.076837,26.9950072 101.065622,27.3568768 101.176694,27.6098913 L101.66045,27.6098913 C101.572671,27.5125942 101.523497,27.0906232 101.485538,26.8506377 C101.436365,26.4763696 101.349448,26.2714783 101.115442,26.2355435 L101.115442,26.2355435 Z M100.631901,26.0302319 L100.125715,26.0302319 L100.125715,25.2598406 L100.631901,25.2598406 C101.02831,25.2598406 101.138951,25.428587 101.138951,25.6446159 C101.138951,25.8253406 101.02831,26.0302319 100.631901,26.0302319 L100.631901,26.0302319 Z" id="Fill-5"></path>
                </g>
            </g>
        </g>
    </g>
</svg>